<svg id="Layer_1" data-name="Layer 1" xmlns="http://www.w3.org/2000/svg" xmlns:xlink="http://www.w3.org/1999/xlink" viewBox="0 0 36 35.92"><defs><clipPath id="clip-path" transform="translate(0 0)"><rect width="36" height="35.92" fill="none"/></clipPath></defs><title>search</title><g clip-path="url(#clip-path)"><path d="M35.31,33.68l-8.79-8.84A14.88,14.88,0,1,0,15.22,30a14.67,14.67,0,0,0,9.64-3.59l8.79,8.79a1.11,1.11,0,0,0,1.6,0,1,1,0,0,0,.06-1.54M6.38,24.09a12.42,12.42,0,0,1-3.65-8.9,12.66,12.66,0,0,1,3.65-8.9,12.42,12.42,0,0,1,8.9-3.65,12.66,12.66,0,0,1,8.9,3.65,12.42,12.42,0,0,1,3.65,8.9,12.65,12.65,0,0,1-3.65,8.9,12.42,12.42,0,0,1-8.9,3.65,12.44,12.44,0,0,1-8.9-3.65" transform="translate(0 0)" fill="#fff"/><path d="M35.31,33.68l-8.79-8.84A14.88,14.88,0,1,0,15.22,30a14.67,14.67,0,0,0,9.64-3.59l8.79,8.79a1.11,1.11,0,0,0,1.6,0A1,1,0,0,0,35.31,33.68ZM6.38,24.09a12.42,12.42,0,0,1-3.65-8.9,12.66,12.66,0,0,1,3.65-8.9,12.42,12.42,0,0,1,8.9-3.65,12.66,12.66,0,0,1,8.9,3.65,12.42,12.42,0,0,1,3.65,8.9,12.65,12.65,0,0,1-3.65,8.9,12.42,12.42,0,0,1-8.9,3.65A12.44,12.44,0,0,1,6.38,24.09Z" transform="translate(0 0)" fill="none" stroke="#fff" stroke-miterlimit="10" stroke-width="0.72"/></g></svg>